<svg width="30" height="30" viewBox="0 0 30 30" fill="none" xmlns="http://www.w3.org/2000/svg">
<circle cx="15" cy="15" r="14.5" stroke="#8A8A8A"/>
<g clip-path="url(#clip0)">
<path d="M14.448 15.0007L10.1149 10.6676C9.96234 10.515 9.96234 10.2677 10.1149 10.1152C10.2675 9.96261 10.5148 9.96259 10.6673 10.1152L15.0005 14.4483L19.3336 10.1152C19.4862 9.96259 19.7335 9.96259 19.8861 10.1152C20.0386 10.2677 20.0386 10.5151 19.8861 10.6676L15.5529 15.0007L19.8861 19.3339C20.0386 19.4864 20.0386 19.7338 19.8861 19.8863C19.8098 19.9626 19.7098 20.0007 19.6098 20.0007C19.5099 20.0007 19.4099 19.9626 19.3336 19.8863L15.0005 15.5532L10.6674 19.8863C10.5911 19.9626 10.4911 20.0007 10.3911 20.0007C10.2911 20.0007 10.1912 19.9626 10.1149 19.8863C9.96234 19.7338 9.96234 19.4864 10.1149 19.3339L14.448 15.0007Z" fill="black"/>
</g>
<defs>
<clipPath id="clip0">
<rect width="10" height="10" fill="white" transform="matrix(-1 0 0 1 20 10)"/>
</clipPath>
</defs>
</svg>
